<?xml version="1.0" encoding="utf-8"?>
<!-- Generator: Adobe Illustrator 23.0.3, SVG Export Plug-In . SVG Version: 6.00 Build 0)  -->
<svg version="1.1" id="Capa_1" xmlns="http://www.w3.org/2000/svg" xmlns:xlink="http://www.w3.org/1999/xlink" x="0px" y="0px"
	 viewBox="0 0 581.5 219" style="enable-background:new 0 0 581.5 219;" xml:space="preserve">
<style type="text/css">
	.st0{fill:none;stroke:#FFFFFF;stroke-miterlimit:10;}
	.st1{fill:#FFFFFF;}
</style>
<g>
	<path class="st0" d="M10.8,25c0,0,38.7-6.2,68.8,1.8c30.1,8,53.2,3,59.2-5.5c0,0,4.5,72.3-2,88.8c0,0-10.6,27.6-3,48.7
		c7.5,21.1,11.5,44.7,9.5,49.2c0,0-1,2-31.6-1.5c0,0-68.3-5-92.3,4c0,0,6-20.1-0.5-55.2c-6.5-35.1-1.5-43.2,1.5-54.2
		c3-11-2-36.1-8-45.7L10.8,25z"/>
	<path class="st1" d="M51.8,73c0,0,15.7-18.9,25.5-21.9c9.8-3.1,21.2-2.4,24.1-1.7c2.9,0.8,2.1,2.9-0.6,2.5
		c-2.8-0.5-20.6-0.5-29.3,6.6C62.7,65.5,56.4,73.4,54,74.3C51.5,75.2,49.7,74.9,51.8,73"/>
	<path class="st1" d="M62.1,89c0,0,5.8-5.1,8.8-4.9c2.9,0.2,16.3-3.7,21.2-16.7c0,0,2-1.9,2-0.5c0,1.4-3,17.2-20.3,19.2
		c0,0-4-0.6-5.4,0.2c-1.4,0.8-5.5,3.1-5.5,3.1L62.1,89z"/>
	<polygon class="st1" points="77.9,91.3 79.2,97.2 81.1,96.1 79,90.6 	"/>
	<polygon class="st1" points="84.4,87.9 83,89.6 85.6,93.6 88.5,91.9 	"/>
	<polygon class="st1" points="90.2,82.9 89,85 92.5,88.6 94.7,86.1 	"/>
	<path class="st1" d="M41.9,104.2c0,0,9.8,17.5,8.3,32.5l-2.4,0.3c0,0-0.3-19.5-7.5-30.8C40.2,106.2,38.5,103,41.9,104.2"/>
	<path class="st1" d="M60.9,134c0,0-3.4,3.8-6.1,5.8c-2.8,2-5.8,0.2-7.5-1.1c-1.7-1.2-2.9-0.1-2,1.2c0.9,1.4,4.6,3.4,6.9,3.1
		c2.3-0.3,10.6-7.4,10.1-8C61.8,134.5,61.6,133.4,60.9,134"/>
	<path class="st1" d="M75,143.2c0,0-11.8-0.8-12.7,0.4c-0.9,1.3-4,5.4-4.3,6.2c-0.3,0.8-4.5,0.6-6-0.9c-1.5-1.5-4.6-1.2-6,0.6
		c-1.4,1.8-6.1,4.2-5.7,5.7c0.5,1.5,4.3,0,5.5-1.4c1.2-1.4,2.3-2.9,4.8-2.5c2.5,0.5,7.1,2.8,8.7,1.1c1.7-1.7,3.1-6.4,3.9-6.6
		c0.8-0.2,9.8,0.3,10.7-0.3C74.9,144.9,75,143.2,75,143.2"/>
	<path class="st1" d="M74.2,150.7c0,0-3.4,1.8-6.8,4.5c-3.4,2.6-4.6,5.4-8,5.1c-3.4-0.3-9.4-2.4-11.8-1.8c-2.5,0.6-3.7,2.8-3.7,2.8
		l-0.3-2.2c0,0,2.9-3.4,5.4-2.5c2.4,0.9,10.4,2.2,11.4,1.2c0.9-0.9,6.3-8,10.9-8C75.9,149.8,74.2,149.8,74.2,150.7"/>
	<path class="st1" d="M74.1,156.9c0,0-9.1,13.8-10.4,14.9c-1.4,1.1-8.1,0.5-10.1-1.7c-2-2.2-4.6-4-2.9-4c1.7,0,4.9,3.2,7.7,3.5
		c2.8,0.3,12.6-11.5,13.8-12.6C73.3,156,74.2,155.3,74.1,156.9"/>
	<path class="st1" d="M37.7,3.8c0,0,8.1-2.8,4.1,3.5c0,0-25.3,16.9-18.1,34.5c0,0,12.6,26.2,13.7,35.6c1,9.6-0.8,28.1-7.8,39
		c-7.1,10.9-5.4,22.3-1.4,31.5c4,9.2,17.7,27.5,13.2,43.1c0,0-1.2,3.8-1.2,4.8c0,0.9,2-12-1.7-19.5c-3.7-7.5-7.7-17.7-14.4-29.5
		c-6.7-11.8-2.1-31.9,4.9-41.1c0,0,13-23.9-7.2-59.7C21.7,46,8.1,16.3,37.7,3.8"/>
	<path class="st1" d="M49.4,182c0,0,9.2,9.2,14.4,9.8c5.2,0.6,4.6,1.2,3.2,1.8c-1.4,0.6-12.6-1.4-16.3-7.1
		C47.1,181,44.6,180.1,49.4,182"/>
	<path class="st1" d="M117.7,107.9c0,0,2.1-0.9,2.1,1.3c0,2.1-0.5,45.2-43.2,81.4c0,0-2.3-0.9-1.6-2.2
		C75.8,187.2,114.3,159.2,117.7,107.9"/>
	<path class="st1" d="M132.6,59.5c0,0,0.5,17.2-2.7,21.8c0,0-1.2,3.2,0.6,2.5c1.8-0.8,6.1-21,3.8-24.4
		C134.3,59.4,133,57.4,132.6,59.5"/>
	<path class="st1" d="M125.2,108.1c0,0-2.6,86.9-15.5,108.7l2.5-0.6C112.2,216.1,131.8,166.1,125.2,108.1"/>
	<g>
		<path class="st1" d="M168.2,41.1h8.5v13.2h-2.2l-0.6-3.2c-1.3,2.3-3.3,3.5-6.1,3.5c-2.8,0-5-1.1-6.6-3.4c-1.6-2.3-2.4-5.4-2.4-9.3
			c0-4.1,0.8-7.4,2.4-9.8c1.6-2.4,4-3.6,7.3-3.6c4.5,0,7.3,2.6,8.2,7.7l-3.8,0.9c-0.4-2.2-1-3.6-1.8-4.2c-0.8-0.6-1.6-1-2.7-1
			c-3.4,0-5.1,3.2-5.1,9.6c0,6.5,1.7,9.7,5.2,9.7c2.9,0,4.3-2.2,4.3-6.6h-4.5V41.1z"/>
		<path class="st1" d="M180.8,35.4h3.4v4.2c1-3.1,2.6-4.6,4.7-4.6c0.2,0,0.4,0,0.7,0.1v4c-0.3,0-0.6-0.1-0.8-0.1
			c-2.8,0-4.2,1.9-4.2,5.6v9.5h-3.9V35.4z"/>
		<path class="st1" d="M204.8,45.3h-10.6c0,2.5,0.3,4.2,1,5.1c0.7,0.8,1.5,1.3,2.6,1.3c1.7,0,2.8-1.2,3.3-3.5l3.5,0.5
			c-0.9,4-3.2,6-6.9,6c-2.3,0-4.1-0.8-5.4-2.4c-1.3-1.6-2-4-2-7.1c0-3.2,0.7-5.7,2-7.5c1.4-1.8,3.2-2.6,5.5-2.6c1.6,0,2.9,0.4,4,1.3
			c1.1,0.9,1.9,2,2.3,3.5C204.5,41.1,204.8,43,204.8,45.3z M200.8,42.7c0-3.3-1.1-5-3.2-5c-2,0-3.1,1.7-3.3,5H200.8z"/>
		<path class="st1" d="M208,35.4h3.6v2.9c0.9-2.2,2.5-3.3,4.6-3.3c2.4,0,3.8,1.2,4.3,3.5c0.9-2.3,2.5-3.5,4.7-3.5
			c1.1,0,2.1,0.2,2.8,0.7c0.8,0.5,1.3,1.1,1.6,2c0.3,0.8,0.4,2.4,0.4,4.6v11.9h-3.9V42.6c0-1.8-0.2-3-0.5-3.6
			c-0.3-0.6-0.9-0.9-1.8-0.9c-2,0-2.9,1.7-2.9,5.1v11h-3.9V42.7c0-1.6-0.1-2.7-0.2-3.1c-0.1-0.5-0.4-0.8-0.7-1.1
			c-0.4-0.3-0.8-0.4-1.4-0.4c-1.1,0-1.8,0.4-2.3,1.2s-0.7,2.1-0.7,4v10.9H208V35.4z"/>
		<path class="st1" d="M238.5,32.8h-4.1v-4.1h4.1V32.8z M234.5,35.4h3.9v18.7h-3.9V35.4z"/>
		<path class="st1" d="M256.8,44.5c0,6.7-2.5,10-7.4,10c-2.3,0-4.1-0.8-5.4-2.4c-1.3-1.6-2-4.1-2-7.4c0-6.5,2.5-9.8,7.4-9.8
			c2.3,0,4,0.8,5.4,2.4C256.1,38.9,256.8,41.3,256.8,44.5z M252.6,44.7c0-2.6-0.3-4.4-0.9-5.4c-0.6-1-1.4-1.5-2.4-1.5
			c-2.2,0-3.3,2.3-3.3,6.9c0,2.3,0.3,4.1,0.8,5.2c0.5,1.1,1.3,1.7,2.5,1.7c1.1,0,2-0.6,2.5-1.7C252.4,48.8,252.6,47,252.6,44.7z"/>
		<path class="st1" d="M267.6,28.8h6.3c2,0,3.6,0.2,4.9,0.6c1.2,0.4,2.3,1.2,3.2,2.5c0.9,1.3,1.3,2.8,1.3,4.7c0,1.7-0.3,3.1-1,4.3
			c-0.7,1.2-1.6,2.1-2.8,2.6c-1.2,0.5-3,0.8-5.4,0.8h-2.2v9.9h-4.2V28.8z M271.8,32v8.8h2.1c1.9,0,3.1-0.3,3.8-1
			c0.7-0.7,1.1-1.8,1.1-3.4c0-1.2-0.2-2.1-0.7-2.8c-0.5-0.7-1-1.2-1.5-1.3c-0.6-0.2-1.4-0.3-2.7-0.3H271.8z"/>
		<path class="st1" d="M299.7,45.3h-10.6c0,2.5,0.3,4.2,1,5.1c0.7,0.8,1.5,1.3,2.6,1.3c1.7,0,2.8-1.2,3.3-3.5l3.5,0.5
			c-0.9,4-3.2,6-6.9,6c-2.3,0-4.1-0.8-5.4-2.4s-2-4-2-7.1c0-3.2,0.7-5.7,2-7.5c1.4-1.8,3.2-2.6,5.5-2.6c1.6,0,2.9,0.4,4,1.3
			s1.9,2,2.3,3.5C299.4,41.1,299.7,43,299.7,45.3z M295.7,42.7c0-3.3-1.1-5-3.2-5c-2,0-3.1,1.7-3.3,5H295.7z"/>
		<path class="st1" d="M302.9,35.4h3.4v4.2c1-3.1,2.6-4.6,4.7-4.6c0.2,0,0.4,0,0.7,0.1v4c-0.3,0-0.6-0.1-0.8-0.1
			c-2.8,0-4.2,1.9-4.2,5.6v9.5h-3.9V35.4z"/>
		<path class="st1" d="M313.1,35.4h3.9v11.9c0,1.7,0.1,2.8,0.4,3.3c0.3,0.6,0.9,0.8,1.8,0.8c1.2,0,2-0.5,2.4-1.5
			c0.5-1,0.7-2.9,0.7-5.6v-9h3.9v18.7h-3.6v-2.8c-1,2.2-2.6,3.3-4.8,3.3c-1.1,0-2-0.2-2.7-0.7c-0.7-0.5-1.2-1.1-1.5-2
			c-0.3-0.9-0.5-2.4-0.5-4.5V35.4z"/>
		<path class="st1" d="M334.2,40.7l-3.7-0.5c0.2-1.7,1-3,2.3-3.9c1.3-0.9,2.9-1.4,4.8-1.4c1.7,0,3,0.3,4,1c1,0.7,1.6,1.5,1.9,2.4
			c0.3,0.9,0.4,2.3,0.4,4.2v6.4c0,2.6,0.1,4.3,0.3,5.2h-3.7c-0.2-0.7-0.2-1.7-0.2-3.1c-1.2,2.4-2.9,3.6-5.3,3.6
			c-1.6,0-2.8-0.5-3.8-1.5c-1-1-1.4-2.3-1.4-4c0-2,0.7-3.7,2.1-4.8s3.8-1.8,7.3-1.8c0.2,0,0.4,0,0.8,0v-0.8c0-1.3-0.2-2.3-0.6-3
			c-0.4-0.7-1.1-1-2.2-1C335.6,37.7,334.6,38.7,334.2,40.7z M340,45c-0.5,0-0.9-0.1-1.1-0.1c-3.4,0-5,1.3-5,4c0,1.9,0.8,2.9,2.5,2.9
			c1,0,1.8-0.5,2.6-1.6c0.7-1,1.1-2.5,1.1-4.3V45z"/>
		<path class="st1" d="M348.2,35.4h3.6v2.9c0.9-2.2,2.4-3.3,4.6-3.3c1.3,0,2.3,0.3,3.1,0.9c0.8,0.6,1.3,1.3,1.5,2.2
			c0.2,0.8,0.3,2.2,0.3,4v12.1h-3.9V42.2c0-1.6-0.1-2.7-0.4-3.3c-0.3-0.6-0.9-0.9-1.8-0.9c-1,0-1.7,0.4-2.3,1.1s-0.8,2.2-0.8,4.5
			v10.5h-3.9V35.4z"/>
		<path class="st1" d="M379.5,44.5c0,6.7-2.5,10-7.4,10c-2.3,0-4.1-0.8-5.4-2.4c-1.3-1.6-2-4.1-2-7.4c0-6.5,2.5-9.8,7.4-9.8
			c2.3,0,4,0.8,5.4,2.4C378.8,38.9,379.5,41.3,379.5,44.5z M375.4,44.7c0-2.6-0.3-4.4-0.9-5.4c-0.6-1-1.4-1.5-2.4-1.5
			c-2.2,0-3.3,2.3-3.3,6.9c0,2.3,0.3,4.1,0.8,5.2c0.5,1.1,1.3,1.7,2.5,1.7c1.1,0,2-0.6,2.5-1.7C375.1,48.8,375.4,47,375.4,44.7z"/>
		<path class="st1" d="M393.4,36.2h2.7v17.9h-2.5v-2c-0.6,1.5-1.7,2.2-3.3,2.2c-1.5,0-2.6-0.6-3.3-1.9c-0.7-1.2-1.1-2.9-1.1-4.9
			c0-2.2,0.4-3.9,1.2-5.1c0.8-1.2,1.9-1.8,3.3-1.8c1.4,0,2.4,0.6,3,1.8V36.2z M393.4,46.3c0-1.4-0.3-2.3-0.8-2.9
			c-0.5-0.5-1-0.8-1.6-0.8c-1.5,0-2.3,1.6-2.3,4.7c0,3.3,0.8,5,2.3,5c0.6,0,1.1-0.3,1.6-0.8c0.5-0.5,0.7-1.5,0.7-2.9V46.3z"/>
		<path class="st1" d="M409,47.9h-7.5c0,1.8,0.2,3,0.7,3.6c0.5,0.6,1.1,0.9,1.8,0.9c1.2,0,2-0.8,2.3-2.5l2.5,0.3
			c-0.7,2.8-2.3,4.2-4.9,4.2c-1.6,0-2.9-0.6-3.8-1.7c-1-1.1-1.4-2.8-1.4-5c0-2.3,0.5-4,1.4-5.3c1-1.2,2.2-1.9,3.8-1.9
			c1.1,0,2.1,0.3,2.8,0.9c0.8,0.6,1.3,1.4,1.6,2.4C408.8,44.9,408.9,46.2,409,47.9z M406.2,46c0-2.3-0.8-3.5-2.3-3.5
			c-1.4,0-2.2,1.2-2.3,3.5H406.2z"/>
		<path class="st1" d="M431.9,45.6l3.9,0.5c-0.8,5.6-3.6,8.4-8.3,8.4c-3.1,0-5.4-1.2-6.9-3.5c-1.5-2.4-2.3-5.5-2.3-9.5
			c0-4.3,0.8-7.5,2.4-9.8c1.6-2.3,3.9-3.4,6.9-3.4c4.6,0,7.4,2.9,8.2,8.6l-3.9,0.6c-0.4-3.8-1.8-5.7-4.3-5.7c-3.2,0-4.8,3.3-4.8,10
			c0,6.2,1.6,9.3,4.8,9.3c1.3,0,2.3-0.5,2.9-1.4C431.1,48.7,431.6,47.4,431.9,45.6z"/>
		<path class="st1" d="M452.9,44.5c0,6.7-2.5,10-7.4,10c-2.3,0-4.1-0.8-5.4-2.4c-1.3-1.6-2-4.1-2-7.4c0-6.5,2.5-9.8,7.4-9.8
			c2.3,0,4,0.8,5.4,2.4C452.2,38.9,452.9,41.3,452.9,44.5z M448.7,44.7c0-2.6-0.3-4.4-0.9-5.4c-0.6-1-1.4-1.5-2.4-1.5
			c-2.2,0-3.3,2.3-3.3,6.9c0,2.3,0.3,4.1,0.8,5.2c0.5,1.1,1.3,1.7,2.5,1.7c1.1,0,2-0.6,2.5-1.7C448.5,48.8,448.7,47,448.7,44.7z"/>
		<path class="st1" d="M467.8,39.7l-3,0.8c-0.6-1.9-1.6-2.8-3.2-2.8c-0.7,0-1.3,0.2-1.7,0.7c-0.4,0.4-0.7,1-0.7,1.7
			c0,0.7,0.2,1.3,0.7,1.6c0.4,0.3,1.5,0.8,3.1,1.3c2,0.7,3.4,1.4,4.2,2.2c0.9,0.8,1.3,2,1.3,3.4c0,1.7-0.6,3.1-1.9,4.2
			c-1.2,1.1-2.9,1.7-5,1.7c-4,0-6.2-1.8-6.8-5.5l3.3-0.6c0.4,2.2,1.6,3.2,3.6,3.2c1,0,1.7-0.2,2.2-0.7c0.5-0.5,0.7-1.1,0.7-1.8
			c0-0.5-0.2-0.9-0.5-1.4c-0.3-0.5-1.3-0.9-2.8-1.4c-1.5-0.5-2.6-0.9-3.3-1.3c-0.7-0.4-1.4-1-1.8-1.8c-0.5-0.8-0.7-1.6-0.7-2.6
			c0-1.6,0.6-3,1.7-4.1c1.2-1.1,2.7-1.7,4.5-1.7C464.9,34.9,466.9,36.5,467.8,39.7z"/>
		<path class="st1" d="M471.4,35.4h3.6v2.9c0.9-2.2,2.5-3.3,4.6-3.3c2.4,0,3.8,1.2,4.3,3.5c0.9-2.3,2.5-3.5,4.7-3.5
			c1.1,0,2.1,0.2,2.8,0.7c0.8,0.5,1.3,1.1,1.6,2c0.3,0.8,0.4,2.4,0.4,4.6v11.9h-3.9V42.6c0-1.8-0.2-3-0.5-3.6
			c-0.3-0.6-0.9-0.9-1.8-0.9c-2,0-2.9,1.7-2.9,5.1v11h-3.9V42.7c0-1.6-0.1-2.7-0.2-3.1c-0.1-0.5-0.4-0.8-0.7-1.1
			c-0.4-0.3-0.8-0.4-1.4-0.4c-1.1,0-1.8,0.4-2.3,1.2c-0.5,0.8-0.7,2.1-0.7,4v10.9h-3.9V35.4z"/>
		<path class="st1" d="M511.5,45.3h-10.6c0,2.5,0.3,4.2,1,5.1c0.7,0.8,1.5,1.3,2.6,1.3c1.7,0,2.8-1.2,3.3-3.5l3.5,0.5
			c-0.9,4-3.2,6-6.9,6c-2.3,0-4.1-0.8-5.4-2.4s-2-4-2-7.1c0-3.2,0.7-5.7,2-7.5c1.4-1.8,3.2-2.6,5.5-2.6c1.6,0,2.9,0.4,4,1.3
			s1.9,2,2.3,3.5C511.3,41.1,511.5,43,511.5,45.3z M507.6,42.7c0-3.3-1.1-5-3.2-5c-2,0-3.1,1.7-3.3,5H507.6z M501.5,31.7l6-5.2
			l2,2.5l-6.5,4.1L501.5,31.7z"/>
		<path class="st1" d="M515.4,30.5l3.5-0.3v5.2h3.6v3.1h-3.6v8.3c0,1.5,0,2.4,0.1,2.9c0.1,0.5,0.3,0.9,0.7,1.2
			c0.4,0.3,1,0.5,1.9,0.5c0.5,0,1,0,1.6-0.1v3.1c-1,0.2-2,0.3-2.9,0.3c-1.4,0-2.6-0.3-3.3-0.8c-0.8-0.6-1.3-1.3-1.5-2.3
			c-0.2-1-0.3-2.4-0.3-4.4v-8.5h-2.4v-3.1h2.5L515.4,30.5z"/>
		<path class="st1" d="M529.1,32.8H525v-4.1h4.1V32.8z M525.1,35.4h3.9v18.7h-3.9V35.4z"/>
		<path class="st1" d="M546.5,41.7l-3.7,0.4c-0.2-1.6-0.5-2.7-0.9-3.3c-0.4-0.6-1.1-0.8-1.9-0.8c-1.1,0-2,0.5-2.5,1.6
			c-0.5,1.1-0.8,2.9-0.8,5.6c0,4.2,1.1,6.2,3.3,6.2c1.7,0,2.6-1.4,2.8-4.1l3.7,0.3c-0.5,4.6-2.8,6.9-6.8,6.9c-2.4,0-4.2-0.9-5.3-2.6
			s-1.7-4.1-1.7-7.2c0-3.2,0.6-5.7,1.9-7.3c1.2-1.7,3.1-2.5,5.5-2.5C543.8,34.9,546,37.2,546.5,41.7z"/>
		<path class="st1" d="M552.5,40.7l-3.7-0.5c0.2-1.7,1-3,2.3-3.9c1.3-0.9,2.9-1.4,4.8-1.4c1.7,0,3,0.3,4,1c1,0.7,1.6,1.5,1.9,2.4
			c0.3,0.9,0.4,2.3,0.4,4.2v6.4c0,2.6,0.1,4.3,0.3,5.2h-3.7c-0.2-0.7-0.2-1.7-0.2-3.1c-1.2,2.4-2.9,3.6-5.3,3.6
			c-1.6,0-2.8-0.5-3.8-1.5c-1-1-1.4-2.3-1.4-4c0-2,0.7-3.7,2.1-4.8c1.4-1.2,3.8-1.8,7.3-1.8c0.2,0,0.4,0,0.8,0v-0.8
			c0-1.3-0.2-2.3-0.6-3c-0.4-0.7-1.1-1-2.2-1C553.9,37.7,552.9,38.7,552.5,40.7z M558.3,45c-0.5,0-0.9-0.1-1.1-0.1c-3.4,0-5,1.3-5,4
			c0,1.9,0.8,2.9,2.5,2.9c1,0,1.8-0.5,2.6-1.6c0.7-1,1.1-2.5,1.1-4.3V45z"/>
		<path class="st1" d="M257.7,69.2h4.2v10.5h7.5V69.2h4.2v25.3h-4.2V83.3h-7.5v11.3h-4.2V69.2z"/>
		<path class="st1" d="M281.3,73.3h-4.1v-4.1h4.1V73.3z M277.3,75.8h3.9v18.7h-3.9V75.8z"/>
		<path class="st1" d="M299.3,72.8v2.8c-0.4-0.1-0.7-0.1-0.9-0.1c-1.1,0-1.8,0.7-2,2.1c0.9,1.2,1.4,2.5,1.4,4c0,1.7-0.6,3.1-1.8,4.3
			c-1.2,1.2-2.8,1.7-4.7,1.7c-0.8,0-1.5-0.1-2.4-0.3c-0.9,0.4-1.4,0.9-1.4,1.6c0,0.6,0.2,1,0.8,1.2c0.5,0.2,1.8,0.3,4,0.4
			c1.9,0.1,3.3,0.3,4.2,0.5c0.9,0.2,1.7,0.8,2.3,1.5c0.6,0.8,0.8,1.8,0.8,3c0,1.9-0.7,3.3-2.2,4.3c-1.5,1-3.6,1.5-6.3,1.5
			c-2.6,0-4.5-0.4-5.7-1.3c-1.2-0.9-1.8-2-1.8-3.4c0-1.8,0.9-3,2.7-3.6c-1.4-0.8-2-1.8-2-3.1c0-1.6,0.9-2.9,2.8-3.8
			c-1.6-1.1-2.4-2.7-2.4-4.8c0-1.8,0.6-3.3,1.8-4.4c1.2-1.1,2.8-1.7,4.7-1.7c1.3,0,2.4,0.3,3.5,0.8c0.2-1.3,0.6-2.2,1.1-2.7
			c0.6-0.5,1.4-0.8,2.4-0.8C298.5,72.7,298.9,72.8,299.3,72.8z M288.6,93.8c-1.1,0.5-1.6,1.3-1.6,2.4c0,0.9,0.3,1.5,1,2
			c0.7,0.4,1.8,0.6,3.4,0.6c3,0,4.5-0.9,4.5-2.6c0-0.8-0.3-1.4-0.8-1.7c-0.6-0.3-1.7-0.5-3.3-0.5C290.4,93.9,289.3,93.8,288.6,93.8z
			 M293.8,81.6c0-2.4-0.8-3.7-2.5-3.7c-1.8,0-2.8,1.2-2.8,3.7c0,2.4,0.9,3.6,2.7,3.6C293,85.2,293.8,84,293.8,81.6z"/>
		<path class="st1" d="M304.6,73.3h-4.1v-4.1h4.1V73.3z M300.6,75.8h3.9v18.7h-3.9V75.8z"/>
		<path class="st1" d="M321.7,85.8h-10.6c0,2.5,0.3,4.2,1,5.1c0.7,0.8,1.5,1.3,2.6,1.3c1.7,0,2.8-1.2,3.3-3.5l3.5,0.5
			c-0.9,4-3.2,6-6.9,6c-2.3,0-4.1-0.8-5.4-2.4s-2-4-2-7.1c0-3.2,0.7-5.7,2-7.5c1.4-1.8,3.2-2.6,5.5-2.6c1.6,0,2.9,0.4,4,1.3
			c1.1,0.9,1.9,2,2.3,3.5C321.4,81.6,321.7,83.5,321.7,85.8z M317.8,83.2c0-3.3-1.1-5-3.2-5c-2,0-3.1,1.7-3.3,5H317.8z"/>
		<path class="st1" d="M324,75.8h3.6v2.9c0.9-2.2,2.4-3.3,4.6-3.3c1.3,0,2.3,0.3,3.1,0.9s1.3,1.3,1.5,2.2c0.2,0.8,0.3,2.2,0.3,4
			v12.1h-3.9V82.7c0-1.6-0.1-2.7-0.4-3.3c-0.3-0.6-0.9-0.9-1.8-0.9c-1,0-1.7,0.4-2.3,1.1c-0.5,0.7-0.8,2.2-0.8,4.5v10.5H324V75.8z"
			/>
		<path class="st1" d="M354.1,85.8h-10.6c0,2.5,0.3,4.2,1,5.1c0.7,0.8,1.5,1.3,2.6,1.3c1.7,0,2.8-1.2,3.3-3.5l3.5,0.5
			c-0.9,4-3.2,6-6.9,6c-2.3,0-4.1-0.8-5.4-2.4c-1.3-1.6-2-4-2-7.1c0-3.2,0.7-5.7,2-7.5c1.4-1.8,3.2-2.6,5.5-2.6c1.6,0,2.9,0.4,4,1.3
			c1.1,0.9,1.9,2,2.3,3.5C353.8,81.6,354.1,83.5,354.1,85.8z M350.2,83.2c0-3.3-1.1-5-3.2-5c-2,0-3.1,1.7-3.3,5H350.2z"/>
		<path class="st1" d="M362.6,69.2h6.3c2,0,3.6,0.2,4.9,0.6c1.2,0.4,2.3,1.2,3.2,2.5c0.9,1.3,1.3,2.8,1.3,4.7c0,1.7-0.3,3.1-1,4.3
			c-0.7,1.2-1.6,2.1-2.8,2.6c-1.2,0.5-3,0.8-5.4,0.8h-2.2v9.9h-4.2V69.2z M366.8,72.5v8.8h2.1c1.9,0,3.1-0.3,3.8-1
			c0.7-0.7,1.1-1.8,1.1-3.4c0-1.2-0.2-2.1-0.7-2.8c-0.5-0.7-1-1.2-1.5-1.3c-0.6-0.2-1.4-0.3-2.7-0.3H366.8z"/>
		<path class="st1" d="M393.7,85.8h-10.6c0,2.5,0.3,4.2,1,5.1c0.7,0.8,1.5,1.3,2.6,1.3c1.7,0,2.8-1.2,3.3-3.5l3.5,0.5
			c-0.9,4-3.2,6-6.9,6c-2.3,0-4.1-0.8-5.4-2.4s-2-4-2-7.1c0-3.2,0.7-5.7,2-7.5c1.4-1.8,3.2-2.6,5.5-2.6c1.6,0,2.9,0.4,4,1.3
			c1.1,0.9,1.9,2,2.3,3.5C393.5,81.6,393.7,83.5,393.7,85.8z M389.8,83.2c0-3.3-1.1-5-3.2-5c-2,0-3.1,1.7-3.3,5H389.8z"/>
		<path class="st1" d="M396,75.8h3.4V80c1-3.1,2.6-4.6,4.7-4.6c0.2,0,0.4,0,0.7,0.1v4c-0.3,0-0.6-0.1-0.8-0.1
			c-2.8,0-4.2,1.9-4.2,5.6v9.5H396V75.8z"/>
		<path class="st1" d="M417.6,80.2l-3,0.8c-0.6-1.9-1.6-2.8-3.2-2.8c-0.7,0-1.3,0.2-1.7,0.7c-0.4,0.4-0.7,1-0.7,1.7
			c0,0.7,0.2,1.3,0.7,1.6c0.4,0.3,1.5,0.8,3.1,1.3c2,0.7,3.4,1.4,4.2,2.2c0.9,0.8,1.3,2,1.3,3.4c0,1.7-0.6,3.1-1.9,4.2
			c-1.2,1.1-2.9,1.7-5,1.7c-4,0-6.2-1.8-6.8-5.5L408,89c0.4,2.2,1.6,3.2,3.6,3.2c1,0,1.7-0.2,2.2-0.7c0.5-0.5,0.7-1.1,0.7-1.8
			c0-0.5-0.2-0.9-0.5-1.4c-0.3-0.5-1.3-0.9-2.8-1.4c-1.5-0.5-2.6-0.9-3.3-1.3c-0.7-0.4-1.4-1-1.8-1.8c-0.5-0.8-0.7-1.6-0.7-2.6
			c0-1.6,0.6-3,1.7-4.1c1.2-1.1,2.7-1.7,4.5-1.7C414.7,75.4,416.7,77,417.6,80.2z"/>
		<path class="st1" d="M434.1,85c0,6.7-2.5,10-7.4,10c-2.3,0-4.1-0.8-5.4-2.4c-1.3-1.6-2-4.1-2-7.4c0-6.5,2.5-9.8,7.4-9.8
			c2.3,0,4,0.8,5.4,2.4C433.5,79.4,434.1,81.8,434.1,85z M430,85.2c0-2.6-0.3-4.4-0.9-5.4c-0.6-1-1.4-1.5-2.4-1.5
			c-2.2,0-3.3,2.3-3.3,6.9c0,2.3,0.3,4.1,0.8,5.2c0.5,1.1,1.3,1.7,2.5,1.7c1.1,0,2-0.6,2.5-1.7C429.7,89.2,430,87.5,430,85.2z"/>
		<path class="st1" d="M436.8,75.8h3.6v2.9c0.9-2.2,2.4-3.3,4.6-3.3c1.3,0,2.3,0.3,3.1,0.9s1.3,1.3,1.5,2.2c0.2,0.8,0.3,2.2,0.3,4
			v12.1H446V82.7c0-1.6-0.1-2.7-0.4-3.3c-0.3-0.6-0.9-0.9-1.8-0.9c-1,0-1.7,0.4-2.3,1.1c-0.5,0.7-0.8,2.2-0.8,4.5v10.5h-3.9V75.8z"
			/>
		<path class="st1" d="M456.8,81.1l-3.7-0.5c0.2-1.7,1-3,2.3-3.9c1.3-0.9,2.9-1.4,4.8-1.4c1.7,0,3,0.3,4,1c1,0.7,1.6,1.5,1.9,2.4
			c0.3,0.9,0.4,2.3,0.4,4.2v6.4c0,2.6,0.1,4.3,0.3,5.2h-3.7c-0.2-0.7-0.2-1.7-0.2-3.1c-1.2,2.4-2.9,3.6-5.3,3.6
			c-1.6,0-2.8-0.5-3.8-1.5c-1-1-1.4-2.3-1.4-4c0-2,0.7-3.7,2.1-4.8c1.4-1.2,3.8-1.8,7.3-1.8c0.2,0,0.4,0,0.8,0v-0.8
			c0-1.3-0.2-2.3-0.6-3c-0.4-0.7-1.1-1-2.2-1C458.2,78.2,457.2,79.2,456.8,81.1z M462.6,85.4c-0.5,0-0.9-0.1-1.1-0.1
			c-3.4,0-5,1.3-5,4c0,1.9,0.8,2.9,2.5,2.9c1,0,1.8-0.5,2.6-1.6c0.7-1,1.1-2.5,1.1-4.3V85.4z"/>
		<path class="st1" d="M469.9,69.2h3.9v25.3h-3.9V69.2z"/>
		<path class="st1" d="M481.2,81.3h2.7l2.3,9.1l2.4-9.1h2.5l-4.3,14.1c-0.3,1-0.6,1.8-0.9,2.3c-0.3,0.5-0.6,0.9-1.1,1.2
			c-0.5,0.3-1.1,0.5-1.9,0.5c-0.5,0-0.9-0.1-1.4-0.2v-2.2c0.3,0.1,0.7,0.1,1,0.1c0.7,0,1.2-0.2,1.5-0.5s0.6-1.1,1-2.4L481.2,81.3z"
			/>
		<path class="st1" d="M360.2,109.7h4.7l6.8,25.3h-4.2l-1.6-6.3h-7.4l-1.6,6.3h-4L360.2,109.7z M365.1,125.4l-2.9-11.6l-2.9,11.6
			H365.1z"/>
		<path class="st1" d="M384.4,120.7l-3,0.8c-0.6-1.9-1.6-2.8-3.2-2.8c-0.7,0-1.3,0.2-1.7,0.7c-0.4,0.4-0.7,1-0.7,1.7
			c0,0.7,0.2,1.3,0.7,1.6c0.4,0.3,1.5,0.8,3.1,1.3c2,0.7,3.4,1.4,4.2,2.2c0.9,0.8,1.3,2,1.3,3.4c0,1.7-0.6,3.1-1.9,4.2
			c-1.2,1.1-2.9,1.7-5,1.7c-4,0-6.2-1.8-6.8-5.5l3.3-0.6c0.4,2.2,1.6,3.2,3.6,3.2c1,0,1.7-0.2,2.2-0.7c0.5-0.5,0.7-1.1,0.7-1.8
			c0-0.5-0.2-0.9-0.5-1.4c-0.3-0.5-1.3-0.9-2.8-1.4c-1.5-0.5-2.6-0.9-3.3-1.3c-0.7-0.4-1.4-1-1.8-1.8c-0.5-0.8-0.7-1.6-0.7-2.6
			c0-1.6,0.6-3,1.7-4.1c1.2-1.1,2.7-1.7,4.5-1.7C381.5,115.9,383.5,117.5,384.4,120.7z"/>
		<path class="st1" d="M400.7,126.2h-10.6c0,2.5,0.3,4.2,1,5.1c0.7,0.8,1.5,1.3,2.6,1.3c1.7,0,2.8-1.2,3.3-3.5l3.5,0.5
			c-0.9,4-3.2,6-6.9,6c-2.3,0-4.1-0.8-5.4-2.4c-1.3-1.6-2-4-2-7.1c0-3.2,0.7-5.7,2-7.5c1.4-1.8,3.2-2.6,5.5-2.6c1.6,0,2.9,0.4,4,1.3
			c1.1,0.9,1.9,2,2.3,3.5C400.4,122.1,400.7,123.9,400.7,126.2z M396.8,123.6c0-3.3-1.1-5-3.2-5c-2,0-3.1,1.7-3.3,5H396.8z"/>
		<path class="st1" d="M416.8,125.5c0,6.7-2.5,10-7.4,10c-2.3,0-4.1-0.8-5.4-2.4s-2-4.1-2-7.4c0-6.5,2.5-9.8,7.4-9.8
			c2.3,0,4,0.8,5.4,2.4C416.1,119.8,416.8,122.3,416.8,125.5z M412.7,125.7c0-2.6-0.3-4.4-0.9-5.4c-0.6-1-1.4-1.5-2.4-1.5
			c-2.2,0-3.3,2.3-3.3,6.9c0,2.3,0.3,4.1,0.8,5.2c0.5,1.1,1.3,1.7,2.5,1.7c1.1,0,2-0.6,2.5-1.7C412.4,129.7,412.7,128,412.7,125.7z"
			/>
		<path class="st1" d="M425.8,109.7h5.7c2.8,0,5,0.5,6.6,1.5c1.7,1,2.9,2.4,3.8,4.4c0.8,1.9,1.3,4.1,1.3,6.4c0,2.5-0.4,4.7-1.1,6.6
			c-0.8,1.9-1.9,3.5-3.5,4.7c-1.6,1.2-3.8,1.8-6.7,1.8h-6V109.7z M430,113.1v18.6h1.7c2.4,0,4.2-0.8,5.3-2.5
			c1.1-1.7,1.7-3.9,1.7-6.8c0-6.2-2.3-9.3-7-9.3H430z"/>
		<path class="st1" d="M459.8,125.5c0,6.7-2.5,10-7.4,10c-2.3,0-4.1-0.8-5.4-2.4c-1.3-1.6-2-4.1-2-7.4c0-6.5,2.5-9.8,7.4-9.8
			c2.3,0,4,0.8,5.4,2.4C459.2,119.8,459.8,122.3,459.8,125.5z M455.7,125.7c0-2.6-0.3-4.4-0.9-5.4c-0.6-1-1.4-1.5-2.4-1.5
			c-2.2,0-3.3,2.3-3.3,6.9c0,2.3,0.3,4.1,0.8,5.2c0.5,1.1,1.3,1.7,2.5,1.7c1.1,0,2-0.6,2.5-1.7C455.5,129.7,455.7,128,455.7,125.7z"
			/>
		<path class="st1" d="M462.6,116.3h3.6v2.9c0.9-2.2,2.5-3.3,4.6-3.3c2.4,0,3.8,1.2,4.3,3.5c0.9-2.3,2.5-3.5,4.7-3.5
			c1.1,0,2.1,0.2,2.8,0.7c0.8,0.5,1.3,1.1,1.6,2c0.3,0.8,0.4,2.4,0.4,4.6V135h-3.9v-11.5c0-1.8-0.2-3-0.5-3.6
			c-0.3-0.6-0.9-0.9-1.8-0.9c-2,0-2.9,1.7-2.9,5.1v11h-3.9v-11.4c0-1.6-0.1-2.7-0.2-3.1c-0.1-0.5-0.4-0.8-0.7-1.1
			c-0.4-0.3-0.8-0.4-1.4-0.4c-1.1,0-1.8,0.4-2.3,1.2s-0.7,2.1-0.7,4V135h-3.9V116.3z"/>
		<path class="st1" d="M501.7,126.2h-10.6c0,2.5,0.3,4.2,1,5.1c0.7,0.8,1.5,1.3,2.6,1.3c1.7,0,2.8-1.2,3.3-3.5l3.5,0.5
			c-0.9,4-3.2,6-6.9,6c-2.3,0-4.1-0.8-5.4-2.4s-2-4-2-7.1c0-3.2,0.7-5.7,2-7.5c1.4-1.8,3.2-2.6,5.5-2.6c1.6,0,2.9,0.4,4,1.3
			c1.1,0.9,1.9,2,2.3,3.5C501.5,122.1,501.7,123.9,501.7,126.2z M497.8,123.6c0-3.3-1.1-5-3.2-5c-2,0-3.1,1.7-3.3,5H497.8z
			 M491.7,112.6l6-5.2l2,2.5l-6.5,4.1L491.7,112.6z"/>
		<path class="st1" d="M515.3,120.7l-3,0.8c-0.6-1.9-1.6-2.8-3.2-2.8c-0.7,0-1.3,0.2-1.7,0.7c-0.4,0.4-0.7,1-0.7,1.7
			c0,0.7,0.2,1.3,0.7,1.6c0.4,0.3,1.5,0.8,3.1,1.3c2,0.7,3.4,1.4,4.2,2.2c0.9,0.8,1.3,2,1.3,3.4c0,1.7-0.6,3.1-1.9,4.2
			c-1.2,1.1-2.9,1.7-5,1.7c-4,0-6.2-1.8-6.8-5.5l3.3-0.6c0.4,2.2,1.6,3.2,3.6,3.2c1,0,1.7-0.2,2.2-0.7c0.5-0.5,0.7-1.1,0.7-1.8
			c0-0.5-0.2-0.9-0.5-1.4c-0.3-0.5-1.3-0.9-2.8-1.4c-1.5-0.5-2.6-0.9-3.3-1.3c-0.7-0.4-1.4-1-1.8-1.8c-0.5-0.8-0.7-1.6-0.7-2.6
			c0-1.6,0.6-3,1.7-4.1c1.2-1.1,2.7-1.7,4.5-1.7C512.4,115.9,514.4,117.5,515.3,120.7z"/>
		<path class="st1" d="M519,111.4l3.5-0.3v5.2h3.6v3.1h-3.6v8.3c0,1.5,0,2.4,0.1,2.9c0.1,0.5,0.3,0.9,0.7,1.2c0.4,0.3,1,0.5,1.9,0.5
			c0.5,0,1,0,1.6-0.1v3.1c-1,0.2-2,0.3-2.9,0.3c-1.4,0-2.6-0.3-3.3-0.8c-0.8-0.6-1.3-1.3-1.5-2.3c-0.2-1-0.3-2.4-0.3-4.4v-8.5h-2.4
			v-3.1h2.5L519,111.4z"/>
		<path class="st1" d="M531.6,113.8h-4.1v-4.1h4.1V113.8z M527.7,116.3h3.9V135h-3.9V116.3z"/>
		<path class="st1" d="M548.1,122.6l-3.7,0.4c-0.2-1.6-0.5-2.7-0.9-3.3c-0.4-0.6-1.1-0.8-1.9-0.8c-1.1,0-2,0.5-2.5,1.6
			c-0.5,1.1-0.8,2.9-0.8,5.6c0,4.2,1.1,6.2,3.3,6.2c1.7,0,2.6-1.4,2.8-4.1l3.7,0.3c-0.5,4.6-2.8,6.9-6.8,6.9c-2.4,0-4.2-0.9-5.3-2.6
			c-1.2-1.7-1.7-4.1-1.7-7.2c0-3.2,0.6-5.7,1.9-7.3c1.2-1.7,3.1-2.5,5.5-2.5C545.4,115.9,547.6,118.1,548.1,122.6z"/>
		<path class="st1" d="M563.5,125.5c0,6.7-2.5,10-7.4,10c-2.3,0-4.1-0.8-5.4-2.4c-1.3-1.6-2-4.1-2-7.4c0-6.5,2.5-9.8,7.4-9.8
			c2.3,0,4,0.8,5.4,2.4C562.9,119.8,563.5,122.3,563.5,125.5z M559.4,125.7c0-2.6-0.3-4.4-0.9-5.4c-0.6-1-1.4-1.5-2.4-1.5
			c-2.2,0-3.3,2.3-3.3,6.9c0,2.3,0.3,4.1,0.8,5.2c0.5,1.1,1.3,1.7,2.5,1.7c1.1,0,2-0.6,2.5-1.7C559.2,129.7,559.4,128,559.4,125.7z"
			/>
	</g>
	<path class="st1" d="M236.3,184.5v1.1c0,2.4-0.4,4.7-1,6.9c-0.7,2.2-1.8,4.1-3.4,5.8c-1.6,1.7-3.6,3.1-6.3,4.1
		c-2.6,1-5.8,1.5-9.4,1.5c-8.1,0-13.7-2.1-16.8-6.3c-3.2-4.2-4.7-11-4.7-20.5c0-9.5,1.6-16.3,4.8-20.5c3.2-4.2,8.8-6.3,16.9-6.3
		c4.4,0,7.9,0.6,10.6,1.7c2.7,1.1,4.7,2.5,6.1,4.2c1.3,1.6,2.2,3.3,2.5,5c0.4,1.7,0.6,3.5,0.6,5.3v1h-10.4v-0.9
		c0-1.3-0.1-2.5-0.4-3.6c-0.3-1.2-0.7-2.2-1.5-3.2c-0.7-1-1.7-1.8-2.9-2.3c-1.2-0.6-2.7-0.9-4.6-0.9c-2,0-3.7,0.3-5.1,0.9
		c-1.4,0.6-2.5,1.6-3.4,3.1c-0.9,1.5-1.6,3.5-2,6.2c-0.4,2.6-0.7,6-0.7,10.2c0,4.1,0.2,7.5,0.7,10.2c0.4,2.7,1.1,4.8,2,6.3
		c0.9,1.5,2,2.6,3.4,3.2c1.4,0.7,3.1,1,5.1,1c2.1,0,3.8-0.4,5.1-1.2c1.3-0.8,2.3-1.8,3-3.1c0.7-1.2,1.1-2.5,1.3-3.9
		c0.2-1.4,0.3-2.8,0.3-4.2v-0.9H236.3z"/>
	<path class="st1" d="M247.3,197.5c-3.4-4.3-5.2-11.1-5.2-20.3c0-9.2,1.7-16,5.2-20.3c3.4-4.3,8.9-6.4,16.4-6.4
		c7.5,0,13,2.2,16.4,6.4c3.4,4.3,5.2,11.1,5.2,20.3c0,9.2-1.7,16-5.2,20.3c-3.5,4.3-8.9,6.4-16.4,6.4
		C256.2,203.9,250.7,201.8,247.3,197.5 M268.2,196.9c1.3-0.6,2.5-1.6,3.5-3c1-1.5,1.8-3.6,2.3-6.4c0.5-2.7,0.8-6.3,0.8-10.5
		c0-4.2-0.3-7.6-0.8-10.3c-0.5-2.7-1.3-4.7-2.3-6.2c-1-1.4-2.2-2.4-3.5-3c-1.3-0.6-2.8-0.9-4.5-0.9c-1.7,0-3.2,0.3-4.5,0.8
		c-1.3,0.5-2.5,1.6-3.5,3c-1,1.5-1.8,3.5-2.3,6.2c-0.5,2.7-0.8,6.1-0.8,10.3c0,4.3,0.3,7.8,0.8,10.5c0.5,2.8,1.3,4.9,2.3,6.4
		c1,1.5,2.2,2.5,3.5,3c1.3,0.5,2.8,0.8,4.5,0.8C265.4,197.7,266.9,197.4,268.2,196.9"/>
	<path class="st1" d="M294.6,151.5h20.7c6.1,0,10.5,1.4,13.6,4c3,2.7,4.5,6.3,4.5,10.9c0,4.7-1.7,8.4-5,11.1
		c-3.4,2.7-8.1,4.1-14.1,4.1H305v21.2h-10.4V151.5z M305,175.5h7.4c3.1,0,5.6-0.7,7.5-2.2c1.9-1.4,2.9-3.7,2.9-6.7
		c0-2.9-0.9-5.1-2.6-6.6c-1.7-1.5-4.6-2.3-8.6-2.3H305V175.5z"/>
	<polygon class="st1" points="340.3,151.5 375.7,151.5 375.7,158.4 350.7,158.4 350.7,172.6 374.2,172.6 374.2,179.6 350.7,179.6 
		350.7,196 376.4,196 376.4,202.9 340.3,202.9 	"/>
	<path class="st1" d="M424.6,184.5v1.1c0,2.4-0.4,4.7-1.1,6.9c-0.7,2.2-1.8,4.1-3.4,5.8c-1.6,1.7-3.6,3.1-6.3,4.1
		c-2.6,1-5.8,1.5-9.4,1.5c-8.1,0-13.7-2.1-16.8-6.3c-3.2-4.2-4.8-11-4.8-20.5c0-9.5,1.6-16.3,4.8-20.5c3.2-4.2,8.8-6.3,16.9-6.3
		c4.3,0,7.9,0.6,10.6,1.7c2.8,1.1,4.7,2.5,6.1,4.2c1.3,1.6,2.1,3.3,2.5,5c0.4,1.7,0.5,3.5,0.5,5.3v1h-10.4v-0.9
		c0-1.3-0.1-2.5-0.4-3.6c-0.3-1.2-0.8-2.2-1.5-3.2c-0.7-1-1.6-1.8-2.9-2.3c-1.2-0.6-2.7-0.9-4.6-0.9c-2,0-3.7,0.3-5.1,0.9
		c-1.4,0.6-2.5,1.6-3.5,3.1c-0.9,1.5-1.6,3.5-2,6.2c-0.4,2.6-0.6,6-0.6,10.2c0,4.1,0.2,7.5,0.6,10.2c0.4,2.7,1.1,4.8,2,6.3
		c0.9,1.5,2.1,2.6,3.5,3.2c1.3,0.7,3,1,5.1,1c2.1,0,3.8-0.4,5.1-1.2c1.3-0.8,2.3-1.8,3-3.1c0.7-1.2,1.1-2.5,1.3-3.9
		c0.2-1.4,0.3-2.8,0.3-4.2v-0.9H424.6z"/>
	<path class="st1" d="M435.5,197.5c-3.5-4.3-5.2-11.1-5.2-20.3c0-9.2,1.7-16,5.2-20.3c3.4-4.3,8.9-6.4,16.4-6.4
		c7.5,0,13,2.2,16.4,6.4c3.4,4.3,5.2,11.1,5.2,20.3c0,9.2-1.7,16-5.2,20.3c-3.5,4.3-8.9,6.4-16.4,6.4
		C444.4,203.9,438.9,201.8,435.5,197.5 M456.4,196.9c1.3-0.6,2.5-1.6,3.5-3c1-1.5,1.8-3.6,2.3-6.4c0.5-2.7,0.8-6.3,0.8-10.5
		c0-4.2-0.3-7.6-0.8-10.3c-0.6-2.7-1.3-4.7-2.3-6.2c-1-1.4-2.2-2.4-3.5-3c-1.3-0.6-2.8-0.9-4.5-0.9c-1.7,0-3.2,0.3-4.6,0.8
		c-1.3,0.5-2.4,1.6-3.5,3c-1,1.5-1.8,3.5-2.3,6.2c-0.6,2.7-0.8,6.1-0.8,10.3c0,4.3,0.3,7.8,0.8,10.5c0.5,2.8,1.3,4.9,2.3,6.4
		c1,1.5,2.2,2.5,3.5,3c1.3,0.5,2.8,0.8,4.6,0.8C453.6,197.7,455.1,197.4,456.4,196.9"/>
	<polygon class="st1" points="482.8,151.5 493.2,151.5 493.2,172.1 512.4,172.1 512.4,151.5 522.9,151.5 522.9,202.9 512.4,202.9 
		512.4,179 493.2,179 493.2,202.9 482.8,202.9 	"/>
</g>
<g>
	<path class="st1" d="M568.6,50.7v3.2l-2.2,4.4h-1.2l1.7-4.1h-1.7v-3.6H568.6z"/>
</g>
</svg>
